<svg width="100" height="41" viewBox="0 0 100 41" fill="none" xmlns="http://www.w3.org/2000/svg">
<g clip-path="url(#clip0_1774_7491)">
<path d="M7.12496 30.402V31.0936H10.2907V40.2915H11.1321V31.0936H14.3121V30.402H7.12496Z" fill="#022127" fill-opacity="0.95"/>
<path d="M16.2146 30.402V40.2915H21.933V39.5856H17.0488V35.3931H21.0346V34.7015H17.0488V31.0936H21.7832V30.402H16.2146Z" fill="#022127" fill-opacity="0.95"/>
<path d="M23.4923 35.3351C23.4923 32.1765 25.2749 30.2228 27.8346 30.2228C28.3355 30.2238 28.8307 30.3304 29.2877 30.5355C29.7447 30.7407 30.1533 31.0399 30.487 31.4136L30.0164 31.9483C29.7464 31.6347 29.4114 31.3837 29.0346 31.2125C28.6579 31.0414 28.2484 30.9543 27.8346 30.9572C25.6955 30.9572 24.3622 32.6399 24.3622 35.3137C24.3622 37.9875 25.6741 39.7344 27.7918 39.7344C28.2744 39.7353 28.7512 39.6289 29.1878 39.423C29.6243 39.217 30.0096 38.9167 30.3159 38.5437L30.7793 39.0571C30.4196 39.5083 29.9615 39.8714 29.44 40.1186C28.9185 40.3658 28.3475 40.4904 27.7704 40.4831C25.282 40.4831 23.4923 38.5152 23.4923 35.3494" fill="#022127" fill-opacity="0.95"/>
<path d="M32.793 30.402H33.6272V34.6872H38.8607V30.402H39.6735V40.2915H38.8607V35.3931H33.6272V40.2915H32.793V30.402Z" fill="#022127" fill-opacity="0.95"/>
<path d="M42.606 30.4154H43.4616L47.5757 37.2175L48.6951 39.214H48.7664C48.7094 38.2372 48.6524 37.2461 48.6524 36.2835V30.4154H49.4438V40.2906H48.5882L44.4812 33.4814L43.3547 31.4992H43.2834C43.3262 32.4475 43.3903 33.3673 43.3903 34.3512V40.2835H42.606V30.4154Z" fill="#022127" fill-opacity="0.95"/>
<path d="M51.709 35.3137C51.709 32.1765 53.4488 30.2228 55.8802 30.2228C58.3115 30.2228 60.0656 32.1765 60.0656 35.3137C60.0656 38.451 58.3401 40.4688 55.8802 40.4688C53.4203 40.4688 51.709 38.4581 51.709 35.3137ZM59.2099 35.3137C59.2099 32.6257 57.8837 30.9572 55.8802 30.9572C53.8766 30.9572 52.5789 32.6257 52.5789 35.3137C52.5789 38.0018 53.8909 39.7344 55.8802 39.7344C57.8695 39.7344 59.2385 38.0018 59.2385 35.3137H59.2099Z" fill="#022127" fill-opacity="0.95"/>
<path d="M62.3962 30.402H63.2305V39.5856H67.8151V40.2915H62.3962V30.402Z" fill="#022127" fill-opacity="0.95"/>
<path d="M68.6424 35.3137C68.6424 32.1765 70.3822 30.2228 72.8135 30.2228C75.2449 30.2228 76.9989 32.1765 76.9989 35.3137C76.9989 38.451 75.2734 40.4688 72.8135 40.4688C70.3536 40.4688 68.6424 38.4581 68.6424 35.3137ZM76.1433 35.3137C76.1433 32.6257 74.8171 30.9572 72.8135 30.9572C70.81 30.9572 69.5337 32.6257 69.5337 35.3137C69.5337 38.0018 70.8456 39.7344 72.8349 39.7344C74.8242 39.7344 76.1433 38.0018 76.1433 35.3137Z" fill="#022127" fill-opacity="0.95"/>
<path d="M78.6787 35.3353C78.6787 32.1766 80.5111 30.223 83.1635 30.223C83.6831 30.2185 84.198 30.322 84.6754 30.527C85.1529 30.732 85.5825 31.0339 85.9371 31.4137L85.4523 31.9485C85.1652 31.6257 84.8108 31.3697 84.4142 31.1985C84.0176 31.0272 83.5882 30.945 83.1564 30.9574C80.9175 30.9574 79.5272 32.6401 79.5272 35.3139C79.5272 37.9877 80.8391 39.7346 83.0922 39.7346C83.8687 39.7681 84.6303 39.5143 85.2313 39.0215V36.0554H82.8926V35.3424H86.0298V39.321C85.6276 39.7025 85.1525 39.9988 84.6331 40.1924C84.1136 40.386 83.5604 40.4728 83.0067 40.4476C80.4113 40.4476 78.643 38.4797 78.643 35.3139" fill="#022127" fill-opacity="0.95"/>
<path d="M90.2112 36.3192L87.1667 30.4154H88.0722L89.5552 33.4457C89.9118 34.1587 90.2255 34.8717 90.6034 35.5847H90.6604C91.0454 34.8717 91.4162 34.1587 91.7371 33.4457L93.1916 30.4154H94.0472L91.0241 36.3405V40.312H90.2112V36.3192Z" fill="#022127" fill-opacity="0.95"/>
<path d="M67.3961 14.3943C67.4052 15.6828 67.1518 16.9597 66.6514 18.1471C66.1509 19.3345 65.4139 20.4075 64.4853 21.3008C63.5566 22.1941 62.4558 22.8889 61.2498 23.3429C60.0439 23.7969 58.7582 24.0006 57.471 23.9415C56.1844 23.9996 54.8994 23.7952 53.6943 23.3407C52.4892 22.8863 51.3892 22.1913 50.4614 21.2981C49.5335 20.4049 48.7971 19.3322 48.2971 18.1453C47.7971 16.9584 47.5439 15.6821 47.553 14.3943C47.5643 13.2226 47.789 12.0629 48.2161 10.9718C48.6111 9.8718 49.2057 8.85416 49.9701 7.97001C50.9111 6.92564 52.0718 6.10267 53.3687 5.56023C54.6656 5.01779 56.0666 4.76935 57.471 4.83276C58.7594 4.7736 60.0463 4.97769 61.2532 5.43255C62.4601 5.88742 63.5616 6.58352 64.4905 7.47835C65.4193 8.37317 66.156 9.44794 66.6556 10.637C67.1552 11.8261 67.4072 13.1045 67.3961 14.3943ZM63.2606 14.3943C63.2831 13.0231 62.7923 11.6931 61.8845 10.6652C61.2279 9.89793 60.3823 9.31551 59.4313 8.97561C58.4804 8.63571 57.4571 8.55014 56.463 8.72736C55.4688 8.90459 54.5381 9.33846 53.7632 9.98601C52.9883 10.6336 52.396 11.4723 52.0449 12.4192C51.6853 13.3737 51.5902 14.4075 51.7697 15.4116C51.9491 16.4156 52.3965 17.3526 53.0646 18.1233C53.5946 18.7739 54.2668 19.2941 55.0295 19.6439C55.7922 19.9937 56.625 20.1638 57.4638 20.1411C58.2207 20.1534 58.9724 20.015 59.6752 19.7338C60.378 19.4527 61.0178 19.0345 61.5573 18.5036C62.0968 17.9727 62.5253 17.3397 62.8177 16.6415C63.1102 15.9434 63.2607 15.194 63.2606 14.437V14.3943Z" fill="#022127" fill-opacity="0.95"/>
<path d="M45.9485 14.3944C45.9576 15.6829 45.7042 16.9598 45.2037 18.1472C44.7033 19.3346 43.9663 20.4077 43.0376 21.301C42.109 22.1943 41.0081 22.8891 39.8022 23.3431C38.5963 23.7971 37.3106 24.0007 36.0234 23.9417C34.7362 24.0007 33.4504 23.7971 32.2445 23.3431C31.0386 22.8891 29.9377 22.1943 29.0091 21.301C28.0804 20.4077 27.3434 19.3346 26.843 18.1472C26.3425 16.9598 26.0891 15.6829 26.0982 14.3944C26.1104 13.2235 26.3326 12.0644 26.7542 10.972C27.1544 9.87287 27.7512 8.85573 28.5153 7.97017C29.4568 6.92445 30.6186 6.10064 31.9169 5.55813C33.2152 5.01563 34.6178 4.76794 36.0234 4.83292C37.3118 4.77376 38.5987 4.97785 39.8056 5.43272C41.0125 5.88758 42.114 6.58368 43.0428 7.47851C43.9717 8.37334 44.7084 9.44811 45.208 10.6372C45.7076 11.8263 45.9595 13.1047 45.9485 14.3944ZM41.8059 14.3944C41.8318 13.0227 41.3406 11.6914 40.4298 10.6654C39.4861 9.58443 38.1782 8.88775 36.7547 8.70767C35.3311 8.52759 33.891 8.87664 32.7078 9.68853C31.7205 10.346 30.9707 11.3033 30.5688 12.4194C30.2043 13.3726 30.106 14.407 30.2844 15.4118C30.4627 16.4166 30.911 17.3539 31.5813 18.1235C32.1295 18.755 32.8069 19.2614 33.5677 19.6085C34.3285 19.9556 35.155 20.1352 35.9913 20.1352C36.8275 20.1352 37.654 19.9556 38.4148 19.6085C39.1757 19.2614 39.8531 18.755 40.4012 18.1235C41.3181 17.0991 41.8191 15.7691 41.8059 14.3944Z" fill="#022127" fill-opacity="0.95"/>
<path d="M86.14 23.9346H81.206L75.566 15.243H74.3896V23.9346H69.6338V0.469342H77.5482C78.6197 0.422595 79.6888 0.604417 80.6846 1.00273C81.6804 1.40104 82.58 2.00671 83.3236 2.7795C84.6436 4.30876 85.3072 6.29695 85.1703 8.31248C85.1745 9.91297 84.6756 11.4743 83.7443 12.7759C82.9012 13.9309 81.746 14.8214 80.4145 15.3428L86.14 23.9346ZM74.3824 4.83298V11.521H76.8067C77.4371 11.53 78.0583 11.3693 78.6052 11.0557C79.1522 10.742 79.6047 10.2871 79.9154 9.7385C80.2158 9.187 80.3519 8.561 80.3076 7.93458C80.2734 7.48174 80.147 7.04066 79.9361 6.63847C79.7252 6.23628 79.4343 5.88149 79.0812 5.5959C78.4575 5.09369 77.6787 4.82398 76.878 4.83298H74.3824Z" fill="#022127" fill-opacity="0.95"/>
<path d="M92.4872 4.83282H87.7528V23.9344H92.4872V4.83282Z" fill="#022127" fill-opacity="0.95"/>
<path d="M92.4872 0.468857H87.7528V3.66315H92.4872V0.468857Z" fill="#022127" fill-opacity="0.95"/>
<path d="M99.8821 4.83282H95.1477V23.9344H99.8821V4.83282Z" fill="#022127" fill-opacity="0.95"/>
<path d="M99.8821 0.468857H95.1477V3.66315H99.8821V0.468857Z" fill="#022127" fill-opacity="0.95"/>
<path d="M7.21765 12.4195H7.12496V13.7171H7.23191C9.9464 13.736 12.5433 14.8275 14.4561 16.7537C16.3689 18.6798 17.4423 21.2842 17.4423 23.9988H18.7257C18.7295 20.9389 17.5205 18.0023 15.3636 15.8319C13.2066 13.6616 10.2775 12.4345 7.21765 12.4195ZM7.21765 9.82409H7.12496V11.1218H7.19626C10.6001 11.1218 13.8645 12.4739 16.2714 14.8808C18.6783 17.2877 20.0305 20.5521 20.0305 23.956H21.321C21.3135 20.2091 19.8212 16.6179 17.1711 13.969C14.5209 11.3202 10.9289 9.82974 7.182 9.82409H7.21765ZM7.14635 7.23586V8.53354C9.17567 8.53447 11.1849 8.93534 13.0592 9.71322C14.9335 10.4911 16.6361 11.6308 18.0698 13.067C19.5034 14.5033 20.6399 16.208 21.4143 18.0838C22.1887 19.9595 22.5859 21.9695 22.5831 23.9988H23.9021C23.9059 21.797 23.4751 19.6161 22.6345 17.5811C21.7938 15.5461 20.5599 13.697 19.0033 12.1398C17.4467 10.5825 15.5981 9.34776 13.5635 8.50626C11.5289 7.66475 9.34815 7.23304 7.14635 7.23586Z" fill="#022127" fill-opacity="0.95"/>
<path d="M6.02724 0.477229H0.373047V23.9425H6.02724V0.477229Z" fill="#022127" fill-opacity="0.95"/>
<path d="M23.8372 0.468857V16.9894C22.6315 14.0845 20.6872 11.5454 18.1973 9.62394V0.468857H23.8372Z" fill="#022127" fill-opacity="0.95"/>
</g>
<defs>
<clipPath id="clip0_1774_7491">
<rect width="99.508" height="40" fill="white" transform="translate(0.373047 0.469238)"/>
</clipPath>
</defs>
</svg>
